<?xml version="1.0" encoding="UTF-8" standalone="no"?>
<svg
   viewBox="0 0 640 512"
   version="1.1"
   id="svg834"
   sodipodi:docname="discord.svg"
   inkscape:version="1.1.1 (3bf5ae0d25, 2021-09-20)"
   xmlns:inkscape="http://www.inkscape.org/namespaces/inkscape"
   xmlns:sodipodi="http://sodipodi.sourceforge.net/DTD/sodipodi-0.dtd"
   xmlns="http://www.w3.org/2000/svg"
   xmlns:svg="http://www.w3.org/2000/svg">
  <defs
     id="defs838" />
  <sodipodi:namedview
     id="namedview836"
     pagecolor="#505050"
     bordercolor="#eeeeee"
     borderopacity="1"
     inkscape:pageshadow="0"
     inkscape:pageopacity="0"
     inkscape:pagecheckerboard="0"
     showgrid="false"
     inkscape:zoom="1.117284"
     inkscape:cx="279.24862"
     inkscape:cy="253.74033"
     inkscape:window-width="1920"
     inkscape:window-height="1017"
     inkscape:window-x="-8"
     inkscape:window-y="-8"
     inkscape:window-maximized="1"
     inkscape:current-layer="svg834" />
  <!--! Font Awesome Pro 6.1.1 by @fontawesome - https://fontawesome.com License - https://fontawesome.com/license (Commercial License) Copyright 2022 Fonticons, Inc. -->
  <path
     fill="#ffffff"
     d="m 542.51033,53.471409 a 1.6318571,1.6318571 0 0 0 -0.83116,-0.761534 527.70452,527.70452 0 0 0 -130.20697,-40.367793 1.975635,1.975635 0 0 0 -2.09204,0.989993 367.12543,367.12543 0 0 0 -16.20978,33.289885 487.21597,487.21597 0 0 0 -146.24269,0 336.75112,336.75112 0 0 0 -16.46544,-33.289885 2.05614,2.05614 0 0 0 -2.09312,-0.989993 526.20756,526.20756 0 0 0 -130.209148,40.368881 1.8624929,1.8624929 0 0 0 -0.857269,0.735424 C 14.372821,177.29129 -8.3448057,298.09114 2.7996905,417.39513 a 2.193216,2.193216 0 0 0 0.8322472,1.49587 530.53416,530.53416 0 0 0 159.7316123,80.71056 2.067019,2.067019 0 0 0 2.24435,-0.73542 378.80843,378.80843 0 0 0 32.6774,-53.13544 2.0235028,2.0235028 0 0 0 -1.10858,-2.8155 349.40563,349.40563 0 0 1 -49.90001,-23.77398 2.0507005,2.0507005 0 0 1 -0.20127,-3.40079 c 3.35293,-2.51197 6.70802,-5.12512 9.90973,-7.76438 a 1.9788987,1.9788987 0 0 1 2.06702,-0.2785 c 104.68798,47.77751 218.02699,47.77751 321.47585,0 a 1.9712834,1.9712834 0 0 1 2.09313,0.25348 c 3.20279,2.63926 6.5568,5.27743 9.93475,7.7894 a 2.0496126,2.0496126 0 0 1 -0.17625,3.40079 327.90211,327.90211 0 0 1 -49.92394,23.74896 2.0398214,2.0398214 0 0 0 -1.08791,2.84052 425.43059,425.43059 0 0 0 32.65237,53.10607 2.0278545,2.0278545 0 0 0 2.24435,0.76153 528.77393,528.77393 0 0 0 159.98945,-80.7073 2.0474367,2.0474367 0 0 0 0.83225,-1.47085 C 650.4283,279.49232 614.74938,159.68246 542.51033,53.471409 Z M 213.91957,344.75138 c -31.51877,0 -57.48923,-28.92413 -57.48923,-64.44639 0,-35.52227 25.46676,-64.44857 57.48923,-64.44857 32.2727,0 57.99186,29.17761 57.48816,64.44639 0,35.52444 -25.46785,64.44857 -57.48816,64.44857 z m 212.55483,0 c -31.51768,0 -57.48815,-28.92413 -57.48815,-64.44639 0,-35.52227 25.46677,-64.44857 57.48815,-64.44857 32.27488,0 57.99294,29.17761 57.48924,64.44639 0,35.52444 -25.21436,64.44857 -57.48924,64.44857 z"
     id="path832"
     style="stroke-width:1.0879" />
</svg>
